<svg width="2em" height="2em" viewBox="0 0 40 40" fill="none" xmlns="http://www.w3.org/2000/svg">
<path d="M27.2333 15.5367C27.3935 15.3874 27.5226 15.208 27.6134 15.0089C27.7042 14.8097 27.7548 14.5946 27.7625 14.3758C27.7702 14.1571 27.7347 13.9389 27.658 13.7339C27.5814 13.5289 27.4651 13.3409 27.3158 13.1808C27.1666 13.0207 26.9872 12.8916 26.7881 12.8008C26.5889 12.71 26.3738 12.6593 26.155 12.6517C25.9363 12.644 25.7181 12.6795 25.5131 12.7561C25.3081 12.8328 25.1201 12.9491 24.96 13.0983L20.0833 17.645L15.5367 12.7667C15.2325 12.4551 14.8184 12.2749 14.383 12.2648C13.9476 12.2546 13.5256 12.4153 13.2072 12.7123C12.8888 13.0094 12.6993 13.4193 12.6792 13.8543C12.6592 14.2893 12.8102 14.7149 13.1 15.04L17.6467 19.9167L12.7683 24.4633C12.6026 24.6111 12.468 24.7905 12.3726 24.991C12.2771 25.1914 12.2227 25.409 12.2125 25.6308C12.2022 25.8526 12.2365 26.0742 12.3131 26.2827C12.3897 26.4911 12.5072 26.6821 12.6587 26.8444C12.8102 27.0068 12.9926 27.1372 13.1952 27.2281C13.3978 27.319 13.6165 27.3685 13.8385 27.3737C14.0605 27.3789 14.2813 27.3396 14.4879 27.2583C14.6945 27.1769 14.8828 27.0551 15.0417 26.9L19.9183 22.355L24.465 27.2317C24.6118 27.4005 24.7911 27.538 24.9922 27.6361C25.1933 27.7341 25.4121 27.7907 25.6355 27.8024C25.8589 27.8141 26.0824 27.7807 26.2926 27.7042C26.5029 27.6277 26.6955 27.5096 26.8592 27.3571C27.0228 27.2045 27.1541 27.0206 27.2451 26.8162C27.3361 26.6118 27.3851 26.3912 27.3891 26.1675C27.393 25.9439 27.3519 25.7217 27.2682 25.5142C27.1845 25.3067 27.0598 25.1183 26.9017 24.96L22.3567 20.0833L27.2333 15.5367V15.5367Z" fill="#ff0000"/>
<path fill-rule="evenodd" clip-rule="evenodd" d="M1.66669 20C1.66669 9.87499 9.87502 1.66666 20 1.66666C30.125 1.66666 38.3334 9.87499 38.3334 20C38.3334 30.125 30.125 38.3333 20 38.3333C9.87502 38.3333 1.66669 30.125 1.66669 20ZM20 35C18.0302 35 16.0797 34.612 14.2598 33.8582C12.4399 33.1044 10.7863 31.9995 9.39342 30.6066C8.00054 29.2137 6.89565 27.5601 6.14183 25.7402C5.38801 23.9204 5.00002 21.9698 5.00002 20C5.00002 18.0302 5.38801 16.0796 6.14183 14.2597C6.89565 12.4399 8.00054 10.7863 9.39342 9.39339C10.7863 8.00051 12.4399 6.89562 14.2598 6.1418C16.0797 5.38798 18.0302 4.99999 20 4.99999C23.9783 4.99999 27.7936 6.58034 30.6066 9.39339C33.4197 12.2064 35 16.0217 35 20C35 23.9782 33.4197 27.7935 30.6066 30.6066C27.7936 33.4196 23.9783 35 20 35Z" fill="white"/>
</svg>
